<?xml version="1.0" standalone="no"?><!DOCTYPE svg PUBLIC "-//W3C//DTD SVG 1.1//EN" "http://www.w3.org/Graphics/SVG/1.1/DTD/svg11.dtd"><svg width="329.6875" height="200" viewBox="0 0 329.6875 200" version="1.1" xmlns="http://www.w3.org/2000/svg" xmlns:xlink="http://www.w3.org/1999/xlink"><defs><style type="text/css"><![CDATA[
@font-face { font-family: ifont; src: url("//at.alicdn.com/t/font_1442373896_4754455.eot?#iefix") format("embedded-opentype"), url("//at.alicdn.com/t/font_1442373896_4754455.woff") format("woff"), url("//at.alicdn.com/t/font_1442373896_4754455.ttf") format("truetype"), url("//at.alicdn.com/t/font_1442373896_4754455.svg#ifont") format("svg"); }

]]></style></defs><g class="transform-group"><g transform="scale(0.1953125, 0.1953125)"><path d="M1009.909581 257.488372l-332.651163 0C621.834419 257.488372 576.744186 302.578605 576.744186 358.002605l0 332.651163c0 55.424744 45.090233 100.514977 100.514233 100.514977l332.651163 0c55.424744 0 100.514977-45.093209 100.514977-100.514977l0-332.651163C1110.424558 302.578605 1065.334326 257.488372 1009.909581 257.488372L1009.909581 257.488372zM1049.982512 690.653767c0 22.131349-17.941581 40.07293-40.07293 40.07293l-332.651163 0c-22.130605 0-40.072186-17.941581-40.072186-40.07293l0-332.651163c0-22.130605 17.941581-40.072186 40.072186-40.072186l332.651163 0c22.131349 0 40.07293 17.941581 40.07293 40.072186L1049.982512 690.653767 1049.982512 690.653767zM698.523535 494.107535l290.121674 0 0 60.442047L698.523535 554.549581 698.523535 494.107535 698.523535 494.107535zM698.523535 494.107535M813.363349 667.901023 813.363349 377.779349l60.442047 0 0 290.121674L813.363349 667.901023 813.363349 667.901023z" fill="#272636"></path></g></g></svg>