<?xml version="1.0" encoding="utf-8"?>
<!-- Generator: Adobe Illustrator 19.2.1, SVG Export Plug-In . SVG Version: 6.00 Build 0)  -->
<svg version="1.1" id="图层_1" xmlns="http://www.w3.org/2000/svg" xmlns:xlink="http://www.w3.org/1999/xlink" x="0px" y="0px"
	 viewBox="0 0 200 200" style="enable-background:new 0 0 200 200;" xml:space="preserve">
<style type="text/css">
	.st0{fill:#CC30F3;}
	.st1{fill:#FFFFFF;stroke:#161616;stroke-width:3;stroke-linejoin:round;stroke-miterlimit:10;}
	.st2{fill:none;stroke:url(#SVGID_1_);stroke-width:20;stroke-miterlimit:10;}
</style>
<path class="st0" d="M130.1,73.6l-8.7-2.7c-11.6,3-23.4,3.6-35.8,0l-8.7,2.7l-19.5,9l8.7,19l10.8-4.2v40c8.8,3.1,18,4.6,27.3,4.6
	c8.9-0.1,17.6-1.6,26-4.7V97.4l11.6,4.2l8.7-19L130.1,73.6z"/>
<title>yifu</title>
<path class="st1" d="M125.6,66.8l-9-2.8c-11.9,3.1-24.1,3.7-36.9,0l-9,2.8L50.8,76l9,19.5l11.1-4.4v41.3c9,3.2,18.5,4.8,28.1,4.8
	c9.1-0.1,18.2-1.7,26.7-4.9V91.3l11.9,4.3l9-19.5L125.6,66.8z"/>
<linearGradient id="SVGID_1_" gradientUnits="userSpaceOnUse" x1="15.7" y1="104" x2="184.3" y2="104" gradientTransform="matrix(1 0 0 -1 0 200)">
	<stop  offset="0" style="stop-color:#CC30F3"/>
	<stop  offset="1" style="stop-color:#F5C538"/>
</linearGradient>
<circle class="st2" cx="100" cy="96" r="74.3"/>
</svg>
