<?xml version="1.0" encoding="utf-8"?>
<!-- Generator: Adobe Illustrator 19.2.1, SVG Export Plug-In . SVG Version: 6.00 Build 0)  -->
<svg version="1.1" id="图层_1" xmlns="http://www.w3.org/2000/svg" xmlns:xlink="http://www.w3.org/1999/xlink" x="0px" y="0px"
	 viewBox="0 0 200 200" style="enable-background:new 0 0 200 200;" xml:space="preserve">
<style type="text/css">
	.st0{fill:#CC30F3;}
	.st1{fill:#FFFFFF;stroke:#161616;stroke-width:3;stroke-linejoin:round;stroke-miterlimit:10;}
	.st2{fill:none;stroke:url(#SVGID_1_);stroke-width:20;stroke-miterlimit:10;}
	.st3{fill:#F4C03D;}
</style>
<title>yifu2</title>
<path class="st0" d="M130.8,71.8l-9.1-2.8c-12.1,3.1-24.4,3.7-37.3,0l-9.1,2.8l-20.4,9.4L64,101l11.3-4.4v41.7
	c9.2,3.2,18.8,4.8,28.4,4.8c9.3-0.1,18.4-1.7,27.1-4.9V96.6l12.1,4.4l9-19.8L130.8,71.8z"/>
<path class="st1" d="M126.6,65.2l-9.3-2.9c-12.4,3.2-25.1,3.9-38.4,0l-9.3,2.9l-21,9.7l9.3,20.4l11.6-4.6v43c9.4,3.3,19.3,5,29.3,5
	c9.5-0.1,18.9-1.8,27.8-5.1V90.7l12.4,4.5l9.3-20.4L126.6,65.2z"/>
<linearGradient id="SVGID_1_" gradientUnits="userSpaceOnUse" x1="15.7" y1="96" x2="184.3" y2="96">
	<stop  offset="0" style="stop-color:#CC30F3"/>
	<stop  offset="1" style="stop-color:#F5C538"/>
</linearGradient>
<circle class="st2" cx="100" cy="96" r="74.3"/>
<rect x="74.6" y="90.1" class="st3" width="47.4" height="18.6"/>
</svg>
